HIERARCHY
ROOT Hips
{
    OFFSET 0.000000 0.000000 0.000000
    CHANNELS 6 Xposition Yposition Zposition Zrotation Xrotation Yrotation
    JOINT Spine
    {
        OFFSET -0.000000 7.724547 0.000000
        CHANNELS 3 Zrotation Xrotation Yrotation
        JOINT Spine1
        {
            OFFSET -0.000000 17.940762 0.000000
            CHANNELS 3 Zrotation Xrotation Yrotation
            JOINT Neck
            {
                OFFSET -0.000000 19.824797 0.000000
                CHANNELS 3 Zrotation Xrotation Yrotation
                JOINT Head
                {
                    OFFSET -0.000000 14.601278 1.884036
                    CHANNELS 3 Zrotation Xrotation Yrotation
                    End Site
                    {
                        OFFSET -0.000000 18.840359 0.000000
                    }
                }
            }
            JOINT LeftShoulder
            {
                OFFSET 3.764927 15.633845 -0.527847
                CHANNELS 3 Zrotation Xrotation Yrotation
                JOINT LeftArm
                {
                    OFFSET 12.860674 0.000000 0.000000
                    CHANNELS 3 Zrotation Xrotation Yrotation
                    JOINT LeftForeArm
                    {
                        OFFSET 30.436468 0.000000 0.000000
                        CHANNELS 3 Zrotation Xrotation Yrotation
                        JOINT LeftHand
                        {
                            OFFSET 23.842159 0.000000 0.000000
                            CHANNELS 3 Zrotation Xrotation Yrotation
                            End Site
                            {
                                OFFSET 14.130269 0.000000 0.000000
                            }
                        }
                    }
                }
            }
            JOINT RightShoulder
            {
                OFFSET -3.769612 15.633845 -0.527847
                CHANNELS 3 Zrotation Xrotation Yrotation
                JOINT RightArm
                {
                    OFFSET -12.860674 0.000000 0.000000
                    CHANNELS 3 Zrotation Xrotation Yrotation
                    JOINT RightForeArm
                    {
                        OFFSET -30.436468 0.000000 0.000000
                        CHANNELS 3 Zrotation Xrotation Yrotation
                        JOINT RightHand
                        {
                            OFFSET -23.842159 0.000000 0.000000
                            CHANNELS 3 Zrotation Xrotation Yrotation
                            End Site
                            {
                                OFFSET -14.130269 0.000000 0.000000
                            }
                        }
                    }
                }
            }
        }
    }
    JOINT LeftUpLeg
    {
        OFFSET 9.420179 0.000000 0.000000
        CHANNELS 3 Zrotation Xrotation Yrotation
        JOINT LeftLeg
        {
            OFFSET -0.000000 -44.529144 0.000000
            CHANNELS 3 Zrotation Xrotation Yrotation
            JOINT LeftFoot
            {
                OFFSET -0.000000 -35.957588 0.000000
                CHANNELS 3 Zrotation Xrotation Yrotation
                JOINT LeftToeBase
                {
                    OFFSET -0.000000 -6.123116 14.130269
                    CHANNELS 3 Zrotation Xrotation Yrotation
                    End Site
                    {
                        OFFSET -0.000000 0.000000 3.768072
                    }
                }
            }
        }
    }
    JOINT RightUpLeg
    {
        OFFSET -9.420179 0.000000 0.000000
        CHANNELS 3 Zrotation Xrotation Yrotation
        JOINT RightLeg
        {
            OFFSET -0.000000 -44.529144 0.000000
            CHANNELS 3 Zrotation Xrotation Yrotation
            JOINT RightFoot
            {
                OFFSET -0.000000 -35.957588 0.000000
                CHANNELS 3 Zrotation Xrotation Yrotation
                JOINT RightToeBase
                {
                    OFFSET -0.000000 -6.123116 14.130269
                    CHANNELS 3 Zrotation Xrotation Yrotation
                    End Site
                    {
                        OFFSET -0.000000 0.000000 3.768072
                    }
                }
            }
        }
    }
}
MOTION
Frames:    9
Frame Time:    0.008333
-88.565849    89.317566    -24.716736    1.742539    3.907587    2.439689    -0.405085    -24.751457    0.185251    -3.608455    12.048133    0.482091    -2.285205    6.506042    -0.754260    3.515599    11.669778    -2.017079    6.932323    13.682000    10.877353    -56.204533    63.078918    -25.402311    -2.867168    -16.922338    -37.529030    2.926975    -17.559202    12.002016    -5.820702    6.255857    -10.051947    87.321953    61.708340    -2.065279    165.848465    13.853327    151.416855    176.495117    10.479125    174.458832    -4.305526    0.388170    6.499033    -0.046927    7.178061    -2.237036    3.535526    -12.182966    6.775172    0.000000    0.000000    0.000000    -3.064635    8.995901    3.189963    0.313283    -5.991675    -3.623547    3.953369    -10.747641    -19.701796    0.000000    0.000000    0.000000    
-88.541809    89.310959    -24.674412    1.708346    3.930566    2.408661    -0.354013    -24.805254    0.193105    -3.615591    12.070488    0.482753    -2.227696    6.523190    -0.746396    3.403550    11.672832    -1.972825    6.891050    13.727284    10.992445    -55.864754    63.170254    -25.707527    -2.912558    -16.945803    -37.579544    3.024057    -17.587410    12.061472    -5.824079    6.263387    -10.045292    87.323280    61.704765    -2.065758    165.848236    13.875628    151.439575    176.501312    10.504647    174.448029    -4.287477    0.431945    6.514947    -0.103358    7.081905    -2.072544    3.600164    -12.156175    6.759249    0.000000    0.000000    0.000000    -3.051261    8.978101    3.172848    0.348496    -5.963407    -3.620920    3.885321    -10.756493    -19.712624    0.000000    0.000000    0.000000    
-88.517059    89.305054    -24.630211    1.674846    3.946854    2.370652    -0.299875    -24.855639    0.207753    -3.623698    12.097605    0.485284    -2.187607    6.534487    -0.735913    3.324004    11.680017    -1.936606    6.848064    13.749562    11.089415    -55.589962    63.255730    -25.934689    -2.954495    -16.966259    -37.636963    3.122337    -17.611391    12.125608    -5.825818    6.268749    -10.041795    87.320755    61.695759    -2.063420    165.849518    13.892371    151.462372    176.504303    10.524943    174.440323    -4.270377    0.484451    6.536073    -0.147677    6.989803    -1.935483    3.645700    -12.140708    6.738062    0.000000    0.000000    0.000000    -3.038362    8.966855    3.166570    0.367703    -5.931654    -3.613729    3.858081    -10.762697    -19.707798    0.000000    0.000000    0.000000    
-88.491531    89.299522    -24.585524    1.641834    3.960907    2.331243    -0.245653    -24.906202    0.224041    -3.631687    12.130385    0.488703    -2.161694    6.540473    -0.724904    3.270305    11.687882    -1.908397    6.806883    13.745391    11.159435    -55.410126    63.326160    -26.058256    -2.988263    -16.980944    -37.694347    3.196429    -17.629438    12.186935    -5.827103    6.271858    -10.042094    87.313690    61.682110    -2.054883    165.850693    13.906010    151.486069    176.507919    10.542110    174.434616    -4.254159    0.539049    6.558706    -0.211668    6.948460    -1.817594    3.722258    -12.220762    6.730075    0.000000    0.000000    0.000000    -3.026966    8.957714    3.168844    0.383949    -5.898968    -3.605316    3.839241    -10.767177    -19.706205    0.000000    0.000000    0.000000    
-88.464668    89.294067    -24.542236    1.615381    3.977901    2.300084    -0.205055    -24.950052    0.232702    -3.636172    12.152919    0.489382    -2.157716    6.542905    -0.712425    3.256390    11.699459    -1.891950    6.777914    13.735039    11.207144    -55.316097    63.376808    -26.109825    -3.007410    -16.988819    -37.736015    3.229398    -17.639973    12.236162    -5.826075    6.276319    -10.048512    87.300659    61.664913    -2.041755    165.852264    13.917323    151.508865    176.514206    10.556732    174.431244    -4.245431    0.587519    6.574638    -0.245220    6.866120    -1.706544    3.758823    -12.212554    6.699805    0.000000    0.000000    0.000000    -3.023206    8.946586    3.170368    0.400390    -5.865508    -3.595615    3.822417    -10.778668    -19.709082    0.000000    0.000000    0.000000    
-88.436150    89.288651    -24.500483    1.598648    3.997944    2.279995    -0.185790    -24.973345    0.229296    -3.633164    12.142504    0.486380    -2.175218    6.549791    -0.699152    3.280102    11.715624    -1.887542    6.762960    13.738520    11.241194    -55.279373    63.413380    -26.127600    -3.009373    -16.991768    -37.755875    3.222804    -17.643806    12.272221    -5.820483    6.288836    -10.063907    87.276718    61.639614    -2.024624    165.861038    13.920512    151.527527    176.524094    10.564106    174.431564    -4.247355    0.627665    6.583037    -0.272733    6.792650    -1.609619    3.790622    -12.200191    6.665053    0.000000    0.000000    0.000000    -3.029091    8.934546    3.169528    0.407951    -5.830443    -3.585195    3.829979    -10.800801    -19.702635    0.000000    0.000000    0.000000    
-88.406380    89.283478    -24.459988    1.589631    4.020437    2.269917    -0.184719    -24.982668    0.215567    -3.622575    12.109865    0.480003    -2.193851    6.563319    -0.689040    3.304862    11.729628    -1.886995    6.753221    13.751196    11.263291    -55.272770    63.442837    -26.125753    -3.001432    -16.993898    -37.763626    3.188919    -17.646187    12.303526    -5.813819    6.305324    -10.085318    87.246590    61.606625    -2.004413    165.877243    13.917262    151.543320    176.540604    10.566115    174.433151    -4.257448    0.660190    6.587700    -0.295984    6.728914    -1.526167    3.817526    -12.186799    6.626756    0.000000    0.000000    0.000000    -3.042867    8.922332    3.168677    0.414738    -5.796965    -3.580187    3.838842    -10.828396    -19.698111    0.000000    0.000000    0.000000    
-88.375862    89.277885    -24.418875    1.584013    4.041934    2.268183    -0.193275    -24.994814    0.195454    -3.608489    12.085475    0.471221    -2.204313    6.579154    -0.684124    3.315362    11.734056    -1.886731    6.737956    13.770841    11.286729    -55.223660    63.474831    -26.164566    -3.003300    -16.999218    -37.770695    3.167086    -17.653563    12.341444    -5.810755    6.313892    -10.106975    87.229347    61.572556    -1.992682    165.890106    13.916031    151.561768    176.562759    10.569455    174.433960    -4.270751    0.691636    6.590685    -0.323000    6.669732    -1.440143    3.851228    -12.174506    6.587357    0.000000    0.000000    0.000000    -3.060508    8.915772    3.169232    0.429560    -5.771077    -3.584438    3.825100    -10.855715    -19.707722    0.000000    0.000000    0.000000    
-88.344749    89.270905    -24.374809    1.579349    4.057691    2.273804    -0.206694    -25.014053    0.169934    -3.593264    12.082010    0.461892    -2.208182    6.594560    -0.684909    3.314125    11.726868    -1.888045    6.717798    13.803648    11.322712    -55.090042    63.513905    -26.290600    -3.028045    -17.009008    -37.777733    3.200303    -17.666916    12.387815    -5.811850    6.311802    -10.127220    87.229622    61.541286    -1.991991    165.894714    13.919839    151.584427    176.589493    10.576191    174.433029    -4.284422    0.728599    6.591564    -0.349871    6.616337    -1.364229    3.886502    -12.171418    6.551862    0.000000    0.000000    0.000000    -3.079150    8.922783    3.170259    0.452661    -5.756938    -3.597710    3.786504    -10.882154    -19.730942    0.000000    0.000000    0.000000    
